<svg xmlns="http://www.w3.org/2000/svg" xmlns:xlink="http://www.w3.org/1999/xlink" version="1.1" id="Capa_1" x="0px" y="0px" width="512px" height="512px" viewBox="0 0 558.45 558.45" style="enable-background:new 0 0 558.45 558.45;" xml:space="preserve">
<g>
	<g>
		<path d="M126.378,392.445h24.479c3.672,0,6.12-2.448,6.12-6.12v-24.48c0-3.672-2.448-6.12-6.12-6.12h-24.479    c-3.672,0-6.12,2.448-6.12,6.12v24.48C120.258,388.772,122.706,392.445,126.378,392.445z" fill="#D80027"/>
		<path d="M126.378,440.181h24.479c3.672,0,6.12-2.448,6.12-6.12v-24.479c0-3.672-2.448-6.12-6.12-6.12h-24.479    c-3.672,0-6.12,2.448-6.12,6.12v24.479C120.258,437.733,122.706,440.181,126.378,440.181z" fill="#D80027"/>
		<path d="M176.562,392.445h24.48c3.672,0,6.12-2.448,6.12-6.12v-24.48c0-3.672-2.448-6.12-6.12-6.12h-24.48    c-3.672,0-6.12,2.448-6.12,6.12v24.48C170.441,388.772,172.89,392.445,176.562,392.445z" fill="#D80027"/>
		<path d="M176.562,440.181h24.48c3.672,0,6.12-2.448,6.12-6.12v-24.479c0-3.672-2.448-6.12-6.12-6.12h-24.48    c-3.672,0-6.12,2.448-6.12,6.12v24.479C170.441,437.733,172.89,440.181,176.562,440.181z" fill="#D80027"/>
		<path d="M357.714,392.445h24.48c3.672,0,6.119-2.448,6.119-6.12v-24.48c0-3.672-2.447-6.12-6.119-6.12h-24.48    c-3.672,0-6.12,2.448-6.12,6.12v24.48C351.594,388.772,354.042,392.445,357.714,392.445z" fill="#D80027"/>
		<path d="M357.714,440.181h24.48c3.672,0,6.119-2.448,6.119-6.12v-24.479c0-3.672-2.447-6.12-6.119-6.12h-24.48    c-3.672,0-6.12,2.448-6.12,6.12v24.479C351.594,437.733,354.042,440.181,357.714,440.181z" fill="#D80027"/>
		<path d="M407.897,392.445h24.48c3.672,0,6.12-2.448,6.12-6.12v-24.48c0-3.672-2.448-6.12-6.12-6.12h-24.48    c-3.672,0-6.119,2.448-6.119,6.12v24.48C401.778,388.772,404.226,392.445,407.897,392.445z" fill="#D80027"/>
		<path d="M407.897,440.181h24.48c3.672,0,6.12-2.448,6.12-6.12v-24.479c0-3.672-2.448-6.12-6.12-6.12h-24.48    c-3.672,0-6.119,2.448-6.119,6.12v24.479C401.778,437.733,404.226,440.181,407.897,440.181z" fill="#D80027"/>
		<path d="M554.778,285.957l-51.408-88.128c-3.672-6.12-9.792-9.792-15.912-9.792H363.834v-33.048l12.24,8.568    c3.672,2.448,7.344,3.672,11.016,3.672c6.12,0,11.017-2.448,14.688-7.344c6.12-8.568,3.672-19.584-3.672-25.704L290.394,55.845    c-6.119-4.896-14.688-4.896-22.032,0l-107.712,78.336c-8.567,6.12-9.792,17.136-3.672,25.704    c6.12,8.568,17.136,9.792,25.704,3.672l12.24-8.568v33.048H71.298c-6.12,0-12.24,3.672-15.912,9.792L2.754,288.405    c-3.672,6.119-3.672,12.239,0,18.359s9.792,9.792,15.912,9.792h37.943v171.36c0,9.792,8.568,18.36,18.36,18.36h408.816    c9.792,0,18.359-8.568,18.359-18.36v-171.36h37.944l0,0c9.792,0,18.36-8.567,18.36-18.359    C558.45,293.301,557.226,289.629,554.778,285.957z M279.378,93.789l47.736,34.272c0,0,0,0,0,1.224v57.528h-95.473v-57.528    c0,0,0,0,0-1.224L279.378,93.789z M465.426,469.557h-134.64v-72.216c0-28.152-23.256-50.184-50.185-50.184    c-26.928,0-50.184,23.256-50.184,50.184v72.216H95.777v-153h372.097L465.426,469.557L465.426,469.557z" fill="#D80027"/>
	</g>
</g>
<g>
</g>
<g>
</g>
<g>
</g>
<g>
</g>
<g>
</g>
<g>
</g>
<g>
</g>
<g>
</g>
<g>
</g>
<g>
</g>
<g>
</g>
<g>
</g>
<g>
</g>
<g>
</g>
<g>
</g>
</svg>
